# xmcd CD database file
#
# Track frame offsets:
#	150
#	35890
#	66977
#	95916
#	133451
#	152339
#	173607
#	201663
#
# Disc length: 2988 seconds
#
# Revision: 0
# Processed by: cddbd v1.5.1PL0 Copyright (c) Steve Scherf et al.
# Submitted via: CDex 1.51
#
DISCID=7b0baa08
DTITLE=Daniel Garcia Quarteto - Caminho
DYEAR=2004
DGENRE=Jazz
TTITLE0=Caminho
TTITLE1=Jardim
TTITLE2=Primavera
TTITLE3=Kronos
TTITLE4=Domingo
TTITLE5=Mr Big Dog
TTITLE6=Estrela Negra
TTITLE7=Marakabop
EXTD=YEAR: 2004
EXTT0=
EXTT1=
EXTT2=
EXTT3=
EXTT4=
EXTT5=
EXTT6=
EXTT7=
PLAYORDER=
